# Blender v2.79 (sub 0) OBJ File: ''
# www.blender.org
o left_fist.000
v -1.949423 -0.331652 0.331653
v -1.949423 0.331652 -0.331653
v -1.949423 0.331653 0.331652
v -1.949423 -0.331653 -0.331652
v 1.018433 0.331653 0.331652
v 1.018433 -0.331653 -0.331652
v 1.018433 -0.331652 0.331653
v 1.018433 0.331652 -0.331653
v 0.979103 -0.331653 -0.370981
v 0.979103 -0.370983 -0.331652
v 1.018433 -0.331653 -0.331652
v 1.018433 -0.331652 0.331653
v 0.979103 -0.370981 0.331653
v 0.979103 -0.331652 0.370983
v 0.979103 0.331652 -0.370983
v 1.018433 0.331652 -0.331653
v 0.979103 0.370981 -0.331653
v 0.979103 0.370983 0.331652
v 1.018433 0.331653 0.331652
v 0.979103 0.331653 0.370981
v -1.910093 -0.331653 -0.370981
v -1.949423 -0.331653 -0.331652
v -1.910093 -0.370983 -0.331652
v -1.910093 -0.370981 0.331653
v -1.949423 -0.331652 0.331653
v -1.910093 -0.331652 0.370983
v -1.910093 0.331652 -0.370983
v -1.910093 0.370981 -0.331653
v -1.949423 0.331652 -0.331653
v -1.949423 0.331653 0.331652
v -1.910093 0.370983 0.331652
v -1.910093 0.331653 0.370981
v 1.018433 -0.331653 -0.331652
v 1.018433 0.331652 -0.331653
v 0.979103 0.331652 -0.370983
v 0.979103 -0.331653 -0.370981
v 1.018433 0.331653 0.331652
v 0.979103 -0.331652 0.370983
v 0.979103 0.331653 0.370981
v 1.018433 -0.331652 0.331653
v -1.949423 0.331652 -0.331653
v -1.949423 -0.331653 -0.331652
v -1.910093 -0.331653 -0.370981
v -1.910093 0.331652 -0.370983
v -1.949423 -0.331652 0.331653
v -1.949423 0.331653 0.331652
v -1.910093 0.331653 0.370981
v -1.910093 -0.331652 0.370983
v 0.979103 0.370981 -0.331653
v -1.910093 0.370981 -0.331653
v -1.910093 0.331652 -0.370983
v 0.979103 0.331652 -0.370983
v 0.979103 0.331653 0.370981
v -1.910093 0.331653 0.370981
v -1.910093 0.370983 0.331652
v 0.979103 0.370983 0.331652
v -1.910093 -0.370983 -0.331652
v 0.979103 -0.370983 -0.331652
v 0.979103 -0.331653 -0.370981
v -1.910093 -0.331653 -0.370981
v -1.910093 -0.331652 0.370983
v 0.979103 -0.331652 0.370983
v 0.979103 -0.370981 0.331653
v -1.910093 -0.370981 0.331653
v 0.979103 -0.370981 0.331653
v -1.910093 -0.370983 -0.331652
v -1.910093 -0.370981 0.331653
v 0.979103 -0.370983 -0.331652
v -1.910093 0.331653 0.370981
v 0.979103 0.331653 0.370981
v 0.979103 -0.331652 0.370983
v -1.910093 -0.331652 0.370983
v -1.910093 0.370983 0.331652
v 0.979103 0.370981 -0.331653
v 0.979103 0.370983 0.331652
v -1.910093 0.370981 -0.331653
v -1.910093 -0.331653 -0.370981
v 0.979103 -0.331653 -0.370981
v 0.979103 0.331652 -0.370983
v -1.910093 0.331652 -0.370983
vt 0.528205 0.019678
vt 0.528205 0.130590
vt 0.634188 0.130590
vt 0.634188 0.019678
vt 0.634188 0.481216
vt 0.634188 0.370304
vt 0.528205 0.370304
vt 0.528205 0.481216
vt 0.528205 0.370304
vt 0.528205 0.370304
vt 0.528205 0.370304
vt 0.634188 0.370304
vt 0.634188 0.370304
vt 0.634188 0.370304
vt 0.528205 0.481216
vt 0.528205 0.481216
vt 0.528205 0.481216
vt 0.634188 0.481216
vt 0.634188 0.481216
vt 0.634188 0.481216
vt 0.634188 0.019678
vt 0.634188 0.019678
vt 0.634188 0.019678
vt 0.528205 0.019678
vt 0.528205 0.019678
vt 0.528205 0.019678
vt 0.634188 0.130590
vt 0.634188 0.130590
vt 0.634188 0.130590
vt 0.528205 0.130590
vt 0.528205 0.130590
vt 0.528205 0.130590
vt 0.528205 0.370304
vt 0.528205 0.481216
vt 0.528205 0.481216
vt 0.528205 0.370304
vt 0.634188 0.481216
vt 0.634188 0.481216
vt 0.634188 0.370304
vt 0.634188 0.370304
vt 0.634188 0.130590
vt 0.634188 0.019678
vt 0.634188 0.019678
vt 0.634188 0.130590
vt 0.528205 0.019678
vt 0.528205 0.130590
vt 0.528205 0.130590
vt 0.528205 0.019678
vt 0.634188 0.363148
vt 0.634188 0.137746
vt 0.634188 0.137746
vt 0.634188 0.363148
vt 0.972650 0.363148
vt 0.972650 0.137746
vt 0.972650 0.137746
vt 0.972650 0.363148
vt 0.747009 0.137746
vt 0.747009 0.363148
vt 0.747009 0.363148
vt 0.747009 0.137746
vt 0.859829 0.137746
vt 0.859829 0.363148
vt 0.859829 0.363148
vt 0.859829 0.137746
vt 0.859829 0.363148
vt 0.859829 0.137746
vt 0.753846 0.137746
vt 0.753846 0.363148
vt 0.972650 0.137746
vt 0.866667 0.363148
vt 0.972650 0.363148
vt 0.866667 0.137746
vt 0.528205 0.137746
vt 0.528205 0.363148
vt 0.634188 0.363148
vt 0.634188 0.137746
vt 0.747009 0.137746
vt 0.641026 0.363148
vt 0.747009 0.363148
vt 0.641026 0.137746
vn -0.8755 -0.3417 0.3417
vn -0.8755 0.3417 0.3417
vn -0.8755 0.3417 -0.3417
vn -0.8755 -0.3417 -0.3417
vn 0.8755 0.3417 0.3417
vn 0.8755 -0.3417 0.3417
vn 0.8755 -0.3417 -0.3417
vn 0.8755 0.3417 -0.3417
vn 0.3418 -0.3417 -0.8755
vn 0.8865 -0.3409 -0.3131
vn 0.3408 -0.8865 -0.3131
vn 0.8865 -0.3408 0.3131
vn 0.3409 -0.8864 0.3130
vn 0.3417 -0.3418 0.8755
vn 0.3417 0.3418 -0.8755
vn 0.3409 0.8864 -0.3130
vn 0.8865 0.3408 -0.3131
vn 0.3408 0.8865 0.3131
vn 0.8865 0.3409 0.3131
vn 0.3418 0.3417 0.8755
vn -0.3417 -0.3418 -0.8755
vn -0.3409 -0.8865 -0.3131
vn -0.8865 -0.3408 -0.3131
vn -0.3408 -0.8865 0.3131
vn -0.8865 -0.3409 0.3130
vn -0.3418 -0.3417 0.8755
vn -0.3418 0.3417 -0.8755
vn -0.8865 0.3409 -0.3130
vn -0.3408 0.8865 -0.3131
vn -0.8865 0.3408 0.3131
vn -0.3409 0.8865 0.3131
vn -0.3417 0.3418 0.8755
vn 0.8502 -0.3774 -0.3670
vn 0.3670 0.3774 -0.8502
vn 0.8502 0.3774 -0.3670
vn 0.3670 -0.3775 -0.8502
vn 0.8502 0.3774 0.3670
vn 0.3670 0.3775 0.8502
vn 0.3670 -0.3774 0.8502
vn 0.8502 -0.3774 0.3670
vn -0.8502 0.3774 -0.3670
vn -0.3670 -0.3774 -0.8502
vn -0.8502 -0.3774 -0.3670
vn -0.3670 0.3774 -0.8502
vn -0.8502 -0.3774 0.3670
vn -0.3670 0.3774 0.8502
vn -0.8502 0.3774 0.3670
vn -0.3670 -0.3774 0.8502
vn 0.3774 0.8502 -0.3670
vn -0.3774 0.3670 -0.8502
vn -0.3774 0.8502 -0.3670
vn 0.3774 0.3670 -0.8502
vn 0.3774 0.3670 0.8502
vn -0.3774 0.8502 0.3670
vn -0.3774 0.3670 0.8502
vn 0.3774 0.8502 0.3670
vn -0.3774 -0.8502 -0.3670
vn 0.3774 -0.3670 -0.8502
vn 0.3774 -0.8502 -0.3670
vn -0.3774 -0.3670 -0.8502
vn -0.3774 -0.3670 0.8502
vn 0.3774 -0.8502 0.3670
vn 0.3774 -0.3670 0.8502
vn -0.3774 -0.8502 0.3670
vn 0.3417 -0.8755 0.3417
vn -0.3417 -0.8755 0.3417
vn -0.3417 -0.8755 -0.3417
vn 0.3417 -0.8755 -0.3417
vn -0.3417 0.3417 0.8755
vn 0.3417 -0.3417 0.8755
vn 0.3417 0.3417 0.8755
vn -0.3417 -0.3417 0.8755
vn -0.3417 0.8755 0.3417
vn 0.3417 0.8755 0.3417
vn 0.3417 0.8755 -0.3417
vn -0.3417 0.8755 -0.3417
vn -0.3417 -0.3417 -0.8755
vn 0.3417 0.3417 -0.8755
vn 0.3417 -0.3417 -0.8755
vn -0.3417 0.3417 -0.8755
s 1
f 1/1/1 3/2/2 2/3/3
f 2/3/3 4/4/4 1/1/1
f 5/5/5 7/6/6 6/7/7
f 6/7/7 8/8/8 5/5/5
f 9/9/9 11/10/10 10/11/11
f 10/11/11 11/10/10 12/12/12
f 12/12/12 13/13/13 10/11/11
f 13/13/13 12/12/12 14/14/14
f 15/15/15 17/16/16 16/17/17
f 18/18/18 16/17/17 17/16/16
f 16/17/17 18/18/18 19/19/19
f 20/20/20 19/19/19 18/18/18
f 21/21/21 23/22/22 22/23/23
f 24/24/24 22/23/23 23/22/22
f 22/23/23 24/24/24 25/25/25
f 26/26/26 25/25/25 24/24/24
f 27/27/27 29/28/28 28/29/29
f 30/30/30 28/29/29 29/28/28
f 28/29/29 30/30/30 31/31/31
f 32/32/32 31/31/31 30/30/30
f 33/33/33 35/34/34 34/35/35
f 33/33/33 36/36/36 35/34/34
f 37/37/37 39/38/38 38/39/39
f 38/39/39 40/40/40 37/37/37
f 41/41/41 43/42/42 42/43/43
f 41/41/41 44/44/44 43/42/42
f 45/45/45 47/46/46 46/47/47
f 47/46/46 45/45/45 48/48/48
f 49/49/49 51/50/50 50/51/51
f 49/49/49 52/52/52 51/50/50
f 53/53/53 55/54/54 54/55/55
f 53/53/53 56/56/56 55/54/54
f 57/57/57 59/58/58 58/59/59
f 57/57/57 60/60/60 59/58/58
f 61/61/61 63/62/62 62/63/63
f 61/61/61 64/64/64 63/62/62
f 65/65/65 67/66/66 66/67/67
f 66/67/67 68/68/68 65/65/65
f 69/69/69 71/70/70 70/71/71
f 69/69/69 72/72/72 71/70/70
f 73/73/73 75/74/74 74/75/75
f 74/75/75 76/76/76 73/73/73
f 77/77/77 79/78/78 78/79/79
f 77/77/77 80/80/80 79/78/78
